<svg version="1.0" xmlns="http://www.w3.org/2000/svg"
    width="40.000000pt" height="40.000000pt" viewBox="0 0 200.000000 200.000000"
    preserveAspectRatio="xMidYMid meet"
>
    <g transform="translate(0.000000,220.000000) scale(0.100000,-0.100000)"
        fill="#334155" stroke="none"
    >
        <path d="M502 1899 c-104 -20 -214 -114 -251 -215 -20 -52 -21 -75 -21 -534
        l0 -480 600 0 c405 0 616 4 652 11 110 24 191 86 240 187 l33 67 3 487 3 488
        -608 -1 c-334 -1 -627 -5 -651 -10z m1196 -501 c-3 -504 -1 -487 -74 -568 -21
        -23 -61 -54 -88 -68 l-51 -27 -597 -3 -598 -3 0 448 c1 344 4 457 14 485 18
        49 69 112 113 139 74 46 95 48 706 48 l578 1 -3 -452z"/>
        <path d="M1352 1715 c37 -35 68 -109 68 -162 0 -22 3 -23 79 -23 44 0 83 4 86
        10 10 17 36 182 31 196 -4 11 -37 14 -153 14 l-148 0 37 -35z"/>
        <path d="M922 1733 c-22 -3 -36 -12 -42 -26 -13 -31 -30 -148 -24 -158 3 -5
        58 -9 123 -9 143 0 146 -2 132 -86 -15 -96 -71 -413 -86 -498 -24 -126 -33
        -116 100 -116 84 0 117 3 120 13 14 39 115 647 115 690 0 54 -29 124 -49 120
        -6 -2 -10 2 -8 9 1 6 -18 23 -43 37 -41 23 -56 26 -175 27 -71 1 -145 0 -163
        -3z"/>
        <path d="M535 1718 c-2 -7 -13 -65 -24 -128 -11 -63 -36 -204 -55 -314 -51
        -282 -48 -327 27 -393 49 -43 102 -55 230 -54 139 1 176 8 187 35 14 34 32
        145 25 156 -4 6 -57 10 -124 10 -90 0 -121 3 -130 14 -10 11 0 85 43 334 31
        175 56 326 56 336 0 14 -15 16 -115 16 -84 0 -117 -3 -120 -12z"/>
        <path d="M931 490 c-34 -15 -49 -38 -57 -88 -8 -54 9 -116 39 -137 34 -24 101
        -19 134 9 26 23 28 29 28 100 0 63 -3 79 -21 96 -24 25 -88 35 -123 20z m78
        -46 c21 -15 22 -22 17 -78 -7 -85 -6 -83 -40 -78 -41 6 -53 16 -60 56 -9 48 3
        96 28 106 29 12 29 12 55 -6z"/>
        <path d="M230 375 c0 -95 3 -115 15 -116 100 -4 120 -1 120 17 0 15 -9 20 -42
        22 l-43 3 0 95 c0 94 0 94 -25 94 l-25 0 0 -115z"/>
        <path d="M380 395 c0 -88 2 -98 25 -120 19 -19 35 -25 70 -25 26 0 55 4 65 10
        27 14 40 64 40 151 0 77 -1 79 -24 79 -23 0 -24 -3 -28 -90 -3 -95 -10 -110
        -53 -110 -37 0 -45 20 -45 112 0 87 0 88 -25 88 -25 0 -25 0 -25 -95z"/>
        <path d="M616 453 c-3 -21 -8 -73 -11 -115 l-7 -78 26 0 c24 0 26 4 27 43 1
        23 4 53 8 67 7 23 9 20 25 -28 28 -83 62 -81 86 3 7 25 17 45 21 45 5 0 9 -29
        9 -64 0 -56 3 -64 21 -69 29 -8 32 9 23 126 -9 100 -10 102 -35 105 -24 3 -29
        -3 -49 -55 -13 -32 -26 -62 -30 -66 -4 -5 -18 20 -32 55 -20 53 -28 63 -50 66
        -23 3 -27 -1 -32 -35z"/>
        <path d="M1090 480 c0 -5 16 -10 35 -10 l35 0 0 -105 c0 -87 3 -105 15 -105
        12 0 15 18 15 105 l0 105 35 0 c19 0 35 5 35 10 0 6 -35 10 -85 10 -50 0 -85
        -4 -85 -10z"/>
        <path d="M1280 373 l0 -118 65 3 c76 4 88 22 15 22 l-50 0 0 45 0 45 45 0 c25
        0 45 5 45 10 0 6 -20 10 -45 10 l-45 0 0 40 0 40 50 0 c28 0 50 5 50 10 0 6
        -28 10 -65 10 l-65 0 0 -117z"/>
        <path d="M1466 477 c-44 -32 -43 -172 2 -207 32 -25 112 -28 112 -4 0 12 -7
        14 -27 10 -63 -13 -100 41 -87 127 8 50 27 67 75 67 21 0 39 5 39 10 0 15 -93
        12 -114 -3z"/>
        <path d="M1610 375 c0 -96 3 -115 15 -115 12 0 15 13 15 55 l0 55 55 0 55 0 0
        -55 c0 -42 3 -55 15 -55 12 0 15 19 15 115 0 96 -3 115 -15 115 -11 0 -15 -12
        -15 -50 l0 -50 -55 0 -55 0 0 50 c0 38 -4 50 -15 50 -12 0 -15 -19 -15 -115z"/>
        <path d="M1142 140 c0 -14 2 -19 5 -12 2 6 2 18 0 25 -3 6 -5 1 -5 -13z"/>
        <path d="M992 130 c0 -14 2 -19 5 -12 2 6 2 18 0 25 -3 6 -5 1 -5 -13z"/>
        <path d="M1051 123 c-1 -21 -7 -33 -18 -36 -17 -4 -17 -5 0 -6 21 -1 30 18 24
        51 -3 18 -5 16 -6 -9z"/>
        <path d="M1502 130 c0 -14 2 -19 5 -12 2 6 2 18 0 25 -3 6 -5 1 -5 -13z"/>
        <path d="M1712 130 c0 -14 2 -19 5 -12 2 6 2 18 0 25 -3 6 -5 1 -5 -13z"/>
        <path d="M1360 135 c0 -5 5 -17 10 -25 5 -8 10 -10 10 -5 0 6 -5 17 -10 25 -5
        8 -10 11 -10 5z"/>
        <path d="M1619 123 c-13 -16 -12 -17 4 -4 16 13 21 21 13 21 -2 0 -10 -8 -17
        -17z"/>
        <path d="M1278 83 c7 -3 16 -2 19 1 4 3 -2 6 -13 5 -11 0 -14 -3 -6 -6z"/>
    </g>
</svg>